<?xml version='1.0' encoding='utf-8'?>
<!DOCTYPE svg PUBLIC '-//W3C//DTD SVG 1.1//EN' 'http://www.w3.org/Graphics/SVG/1.1/DTD/svg11.dtd'>
<svg version="1.1" xmlns="http://www.w3.org/2000/svg" viewBox="0 0 512 512" xmlns:xlink="http://www.w3.org/1999/xlink" enable-background="new 0 0 512 512">
  <g>
    <g>
      <path d="m361.5,239.2l-187.6-130.6c-9.5-7.3-30.8-4.8-32.1,16.8v261.2c1.5,23.3 24,23.3 32.1,16.8l187.6-130.6c8.1-5.3 15.7-20.9 0-33.6zm-178.9,108.3v-183l131.5,91.5-131.5,91.5z"/>
      <path d="M440.8,11H71.3C38,11,11,38,11,71.2v369.5C11,474,38,501,71.3,501h369.5c33.2,0,60.2-27,60.2-60.2V71.2    C501,38,474,11,440.8,11z M460.2,440.8c0,10.7-8.7,19.4-19.4,19.4H71.3c-10.7,0-19.4-8.7-19.4-19.4V71.2    c0-10.7,8.7-19.4,19.4-19.4h369.5c10.7,0,19.4,8.7,19.4,19.4V440.8z"/>
    </g>
  </g>
</svg>
